<?xml version="1.0" encoding="UTF-8" standalone="no"?>
<!-- Created with Inkscape (http://www.inkscape.org/) -->

<svg
   width="512"
   height="512"
   viewBox="0 0 512 512"
   version="1.1"
   id="svg1"
   inkscape:version="1.4 (86a8ad7, 2024-10-11)"
   sodipodi:docname="logo.svg"
   inkscape:export-filename="logo.png"
   inkscape:export-xdpi="96"
   inkscape:export-ydpi="96"
   xmlns:inkscape="http://www.inkscape.org/namespaces/inkscape"
   xmlns:sodipodi="http://sodipodi.sourceforge.net/DTD/sodipodi-0.dtd"
   xmlns:xlink="http://www.w3.org/1999/xlink"
   xmlns="http://www.w3.org/2000/svg"
   xmlns:svg="http://www.w3.org/2000/svg">
  <sodipodi:namedview
     id="namedview1"
     pagecolor="#ffffff"
     bordercolor="#000000"
     borderopacity="0.25"
     inkscape:showpageshadow="2"
     inkscape:pageopacity="0.0"
     inkscape:pagecheckerboard="0"
     inkscape:deskcolor="#d1d1d1"
     inkscape:document-units="mm"
     inkscape:zoom="1.4378367"
     inkscape:cx="288.62804"
     inkscape:cy="259.06975"
     inkscape:window-width="1920"
     inkscape:window-height="1009"
     inkscape:window-x="-8"
     inkscape:window-y="-8"
     inkscape:window-maximized="1"
     inkscape:current-layer="g4"
     showgrid="false" />
  <defs
     id="defs1">
    <inkscape:path-effect
       effect="fillet_chamfer"
       id="path-effect5"
       is_visible="true"
       lpeversion="1"
       nodesatellites_param="F,0,0,1,0,27,0,1 @ F,0,0,1,0,27,0,1 @ F,0,0,1,0,27,0,1 @ F,0,0,1,0,27,0,1"
       radius="27"
       unit="px"
       method="auto"
       mode="F"
       chamfer_steps="1"
       flexible="false"
       use_knot_distance="true"
       apply_no_radius="true"
       apply_with_radius="true"
       only_selected="false"
       hide_knots="false" />
    <linearGradient
       id="linearGradient1"
       inkscape:collect="always">
      <stop
         style="stop-color:#ffff00;stop-opacity:0.99999934;"
         offset="0"
         id="stop1" />
      <stop
         style="stop-color:#ff8c00;stop-opacity:0.99999934;"
         offset="1"
         id="stop2" />
    </linearGradient>
    <inkscape:path-effect
       effect="fillet_chamfer"
       id="path-effect1"
       is_visible="true"
       lpeversion="1"
       nodesatellites_param="F,0,0,1,0,27,0,1 @ F,0,0,1,0,27,0,1 @ F,0,0,1,0,27,0,1 @ F,0,0,1,0,27,0,1"
       radius="27"
       unit="px"
       method="auto"
       mode="F"
       chamfer_steps="1"
       flexible="false"
       use_knot_distance="true"
       apply_no_radius="true"
       apply_with_radius="true"
       only_selected="false"
       hide_knots="false" />
    <inkscape:path-effect
       effect="lattice2"
       gridpoint0="44.72509,174.11902"
       gridpoint1="469.45181,174.11902"
       gridpoint2="44.72509,329.37483"
       gridpoint3="469.45181,329.37483"
       gridpoint4="150.90677,174.11902"
       gridpoint5="363.27013,174.11902"
       gridpoint6="150.90677,329.37483"
       gridpoint7="363.27013,329.37483"
       gridpoint8x9="257.08845,174.11902"
       gridpoint10x11="257.08845,329.37483"
       gridpoint12="44.72509,212.93297"
       gridpoint13="469.45181,212.93297"
       gridpoint14="44.72509,290.56088"
       gridpoint15="469.45181,290.56088"
       gridpoint16="150.90677,212.93297"
       gridpoint17="363.27013,212.93297"
       gridpoint18="150.90677,290.56088"
       gridpoint19="363.27013,290.56088"
       gridpoint20x21="257.08845,212.93297"
       gridpoint22x23="257.08845,290.56088"
       gridpoint24x26="44.72509,251.74693"
       gridpoint25x27="469.45181,251.74693"
       gridpoint28x30="150.90677,251.74693"
       gridpoint29x31="363.27013,251.74693"
       gridpoint32x33x34x35="257.08845,251.74693"
       id="path-effect9"
       is_visible="true"
       lpeversion="1"
       horizontal_mirror="false"
       vertical_mirror="false"
       perimetral="false"
       live_update="true" />
    <inkscape:path-effect
       effect="fillet_chamfer"
       id="path-effect7"
       is_visible="true"
       lpeversion="1"
       nodesatellites_param="F,0,0,1,0,10,0,1 @ F,0,0,1,0,10,0,1 @ F,0,0,1,0,10,0,1 @ F,0,0,1,0,10,0,1"
       radius="10"
       unit="px"
       method="auto"
       mode="F"
       chamfer_steps="1"
       flexible="false"
       use_knot_distance="true"
       apply_no_radius="true"
       apply_with_radius="true"
       only_selected="false"
       hide_knots="false" />
    <rect
       x="0"
       y="15.300764"
       width="512"
       height="298.3649"
       id="rect4" />
    <rect
       x="0"
       y="426.33493"
       width="512"
       height="85.665077"
       id="rect3" />
    <rect
       x="0"
       y="433.28983"
       width="512"
       height="78.710182"
       id="rect2" />
    <rect
       x="55.639141"
       y="431.20334"
       width="456.36087"
       height="80.796654"
       id="rect1" />
    <linearGradient
       inkscape:collect="always"
       xlink:href="#linearGradient1"
       id="linearGradient2"
       x1="-846.58228"
       y1="430.59418"
       x2="-846.58228"
       y2="-3.1812134"
       gradientUnits="userSpaceOnUse" />
  </defs>
  <g
     inkscape:label="black and gold"
     inkscape:groupmode="layer"
     id="layer1"
     transform="translate(1102.5823,42.293525)"
     style="display:none">
    <path
       style="display:inline;fill:#000000;fill-opacity:1;stroke:none;stroke-width:22.6062;stroke-linejoin:round;stroke-dasharray:none;stroke-dashoffset:0;stroke-opacity:1;paint-order:fill markers stroke"
       id="rect7-5"
       width="513.03387"
       height="512"
       x="-1102.5823"
       y="-469.70648"
       sodipodi:type="rect"
       transform="scale(1,-1)"
       inkscape:path-effect="#path-effect1"
       d="m -1075.5823,-469.70648 h 459.0339 a 27,27 45 0 1 27,27 V 15.293518 a 27,27 135 0 1 -27,27 h -459.0339 a 27,27 45 0 1 -27,-27 V -442.70648 a 27,27 135 0 1 27,-27 z" />
    <path
       id="text3"
       style="font-size:245.333px;line-height:1;font-family:'Libre Barcode 128';-inkscape-font-specification:'Libre Barcode 128, ';text-align:center;letter-spacing:0px;text-anchor:middle;fill:#ffff00;stroke-width:12.5314;stroke-linecap:round;stroke-linejoin:bevel;paint-order:stroke fill markers"
       d="m -1033.9114,50.729565 c -9.4359,9.99092 -16.6523,20.815695 -21.6478,32.471775 -5.273,11.65607 -7.9108,23.86811 -7.9108,36.63429 0,7.49319 0.9737,14.98651 2.9164,22.47971 1.9427,7.21566 5.9645,13.87527 12.07,19.98083 5.2731,5.27298 12.4896,9.57487 21.6479,12.90517 4.7056,1.76462 11.0366,3.02805 18.7811,3.85764 -16.2048,8.41543 -29.1386,19.88209 -38.762,34.44036 -11.101,16.09649 -16.6534,35.66178 -16.6534,58.6964 0,18.59424 4.3018,35.93855 12.9053,52.03505 8.6032,15.81894 20.9553,28.58791 37.0518,38.30131 15.81884,9.43588 35.1074,14.15129 57.86461,14.15129 22.4795,0 41.90475,-4.43865 58.27874,-13.31945 16.0965,-9.15837 28.5853,-21.6472 37.46613,-37.46617 8.88082,-15.81895 13.31945,-33.72017 13.31945,-53.70203 0,-23.03461 -5.40905,-42.59991 -16.23255,-58.6964 -9.43669,-13.9191 -21.8126,-24.99978 -37.06512,-33.30361 h 47.41512 7.96714 51.21643 c -15.25251,8.30383 -27.62845,19.38452 -37.06513,33.30361 -10.82351,16.0965 -16.23589,35.66179 -16.23589,58.6964 0,19.98187 4.44197,37.88309 13.32279,53.70203 8.88082,15.81897 21.36964,28.3078 37.46613,37.46617 16.374,8.8808 35.79925,13.31945 58.27884,13.31945 22.75709,0 42.04561,-4.7154 57.86456,-14.15129 16.09649,-9.7134 28.44858,-22.48236 37.05188,-38.30131 8.60329,-16.0965 12.9052,-33.44081 12.9052,-52.03505 0,-23.03461 -5.55246,-42.59991 -16.65348,-58.6964 -9.62326,-14.55827 -22.55706,-26.02493 -38.76196,-34.44034 7.74441,-0.82961 14.07549,-2.09304 18.78112,-3.85764 9.15836,-3.33032 16.37486,-7.63221 21.64784,-12.90518 6.10559,-6.10555 10.12737,-12.76517 12.07005,-19.98084 1.94268,-7.49318 2.91643,-14.98652 2.91643,-22.47971 0,-12.76618 -2.63783,-24.97822 -7.91081,-36.63429 -4.99545,-11.65608 -12.21199,-22.480855 -21.64786,-32.471775 l -14.98645,11.241501 c 7.49318,7.770714 13.18238,15.817614 17.06773,24.143394 3.88535,8.04823 5.82953,16.09844 5.82953,24.14667 0,10.54597 -3.1914,18.59287 -9.57448,24.1434 -3.88537,3.33032 -9.15769,5.82807 -15.81831,7.49322 -6.66062,1.38762 -16.93179,2.08127 -30.80808,2.08127 h -137.8774 -11.21167 -128.9889 c -13.87634,0 -24.14743,-0.69365 -30.80813,-2.08127 -6.6606,-1.66515 -11.9328,-4.1629 -15.8182,-7.49322 -6.3831,-5.55051 -9.5745,-13.59743 -9.5745,-24.1434 0,-8.04823 1.9442,-16.09844 5.8294,-24.14667 3.8854,-8.32578 9.5747,-16.37268 17.0678,-24.143394 z m 78.6773,129.051885 c 15.26389,0 29.0033,3.60497 41.21442,10.82062 11.9336,7.21567 21.36776,16.7932 28.30591,28.72679 6.93813,11.93362 10.40632,25.11611 10.40632,39.54743 0,13.87631 -3.05136,26.77866 -9.15691,38.71227 -6.10555,11.9336 -14.98613,21.50783 -26.64222,28.72348 -11.93359,7.21567 -26.64341,10.82391 -44.12752,10.82391 -17.48414,0 -32.19396,-3.46818 -44.1276,-10.40633 -11.9335,-7.21567 -20.8141,-16.7899 -26.6421,-28.72351 -6.1057,-11.9336 -9.1569,-24.97603 -9.1569,-39.12984 0,-14.70885 3.4681,-28.03138 10.4063,-39.96498 6.9382,-11.93361 16.3756,-21.37109 28.30922,-28.30922 11.93363,-7.21565 25.66965,-10.82062 41.21108,-10.82062 z m 217.30363,0 c 15.54143,0 29.2775,3.60497 41.2111,10.82062 11.9336,6.93813 21.37109,16.37561 28.30922,28.30922 6.93815,11.9336 10.40634,25.25613 10.40634,39.96498 0,14.15381 -3.05134,27.19624 -9.15691,39.12984 -5.82804,11.93361 -14.70862,21.50784 -26.64222,28.72351 -11.93361,6.93813 -26.64341,10.40633 -44.12753,10.40633 -17.48413,0 -32.19393,-3.60825 -44.12754,-10.82391 -11.65607,-7.21565 -20.53665,-16.78988 -26.64222,-28.72348 -6.10555,-11.93361 -9.15692,-24.83598 -9.15692,-38.71227 0,-14.43132 3.4682,-27.61381 10.40633,-39.54743 6.93816,-11.93359 16.37231,-21.51111 28.30592,-28.72678 12.21112,-7.21566 25.95052,-10.82061 41.21443,-10.82063 z m -216.88604,53.28446 c -7.2156,0 -13.04489,2.21765 -17.48532,6.65809 -4.44044,4.16287 -6.66142,9.71532 -6.66142,16.65344 0,6.3831 2.22098,11.79546 6.66142,16.2359 4.44043,4.44042 10.26972,6.65807 17.48532,6.65807 6.93817,0 12.62731,-2.21765 17.06771,-6.65807 4.16288,-4.44044 6.24381,-9.8528 6.24381,-16.2359 0,-6.66062 -2.08093,-12.21304 -6.24381,-16.65344 -4.4404,-4.44044 -10.12954,-6.65809 -17.06771,-6.65809 z m 216.46845,0 c -6.93816,0 -12.62732,2.21765 -17.06772,6.65809 -4.16289,4.44042 -6.24381,9.99282 -6.24381,16.65344 0,6.3831 2.08092,11.79546 6.24381,16.2359 4.4404,4.44042 10.12956,6.65807 17.06772,6.65807 7.21566,0 13.0449,-2.21765 17.48531,-6.65807 4.44041,-4.44044 6.66138,-9.8528 6.66138,-16.2359 0,-6.93812 -2.22097,-12.49057 -6.66138,-16.65344 -4.44041,-4.44044 -10.26965,-6.65809 -17.48531,-6.65809 z"
       inkscape:label="text plain" />
    <path
       id="path1"
       style="font-size:245.333px;line-height:1;font-family:'Libre Barcode 128';-inkscape-font-specification:'Libre Barcode 128, ';text-align:center;letter-spacing:0px;text-anchor:middle;display:inline;fill:url(#linearGradient2);stroke-width:12.5314;stroke-linecap:round;stroke-linejoin:bevel;paint-order:stroke fill markers"
       d="m -1033.9114,50.729565 c -9.4359,9.99092 -16.6523,20.815695 -21.6478,32.471775 -5.273,11.65607 -7.9108,23.86811 -7.9108,36.63429 0,7.49319 0.9737,14.98651 2.9164,22.47971 1.9427,7.21566 5.9645,13.87527 12.07,19.98083 5.2731,5.27298 12.4896,9.57487 21.6479,12.90517 4.7056,1.76462 11.0366,3.02805 18.7811,3.85764 -16.2048,8.41543 -29.1386,19.88209 -38.762,34.44036 -11.101,16.09649 -16.6534,35.66178 -16.6534,58.6964 0,18.59424 4.3018,35.93855 12.9053,52.03505 8.6032,15.81894 20.9553,28.58791 37.0518,38.30131 15.81884,9.43588 35.1074,14.15129 57.86461,14.15129 22.4795,0 41.90475,-4.43865 58.27874,-13.31945 16.0965,-9.15837 28.5853,-21.6472 37.46613,-37.46617 8.88082,-15.81895 13.31945,-33.72017 13.31945,-53.70203 0,-23.03461 -5.40905,-42.59991 -16.23255,-58.6964 -9.43669,-13.9191 -21.8126,-24.99978 -37.06512,-33.30361 h 47.41512 7.96714 51.21643 c -15.25251,8.30383 -27.62845,19.38452 -37.06513,33.30361 -10.82351,16.0965 -16.23589,35.66179 -16.23589,58.6964 0,19.98187 4.44197,37.88309 13.32279,53.70203 8.88082,15.81897 21.36964,28.3078 37.46613,37.46617 16.374,8.8808 35.79925,13.31945 58.27884,13.31945 22.75709,0 42.04561,-4.7154 57.86456,-14.15129 16.09649,-9.7134 28.44858,-22.48236 37.05188,-38.30131 8.60329,-16.0965 12.9052,-33.44081 12.9052,-52.03505 0,-23.03461 -5.55246,-42.59991 -16.65348,-58.6964 -9.62326,-14.55827 -22.55706,-26.02493 -38.76196,-34.44034 7.74441,-0.82961 14.07549,-2.09304 18.78112,-3.85764 9.15836,-3.33032 16.37486,-7.63221 21.64784,-12.90518 6.10559,-6.10555 10.12737,-12.76517 12.07005,-19.98084 1.94268,-7.49318 2.91643,-14.98652 2.91643,-22.47971 0,-12.76618 -2.63783,-24.97822 -7.91081,-36.63429 -4.99545,-11.65608 -12.21199,-22.480855 -21.64786,-32.471775 l -14.98645,11.241501 c 7.49318,7.770714 13.18238,15.817614 17.06773,24.143394 3.88535,8.04823 5.82953,16.09844 5.82953,24.14667 0,10.54597 -3.1914,18.59287 -9.57448,24.1434 -3.88537,3.33032 -9.15769,5.82807 -15.81831,7.49322 -6.66062,1.38762 -16.93179,2.08127 -30.80808,2.08127 h -137.8774 -11.21167 -128.9889 c -13.87634,0 -24.14743,-0.69365 -30.80813,-2.08127 -6.6606,-1.66515 -11.9328,-4.1629 -15.8182,-7.49322 -6.3831,-5.55051 -9.5745,-13.59743 -9.5745,-24.1434 0,-8.04823 1.9442,-16.09844 5.8294,-24.14667 3.8854,-8.32578 9.5747,-16.37268 17.0678,-24.143394 z m 78.6773,129.051885 c 15.26389,0 29.0033,3.60497 41.21442,10.82062 11.9336,7.21567 21.36776,16.7932 28.30591,28.72679 6.93813,11.93362 10.40632,25.11611 10.40632,39.54743 0,13.87631 -3.05136,26.77866 -9.15691,38.71227 -6.10555,11.9336 -14.98613,21.50783 -26.64222,28.72348 -11.93359,7.21567 -26.64341,10.82391 -44.12752,10.82391 -17.48414,0 -32.19396,-3.46818 -44.1276,-10.40633 -11.9335,-7.21567 -20.8141,-16.7899 -26.6421,-28.72351 -6.1057,-11.9336 -9.1569,-24.97603 -9.1569,-39.12984 0,-14.70885 3.4681,-28.03138 10.4063,-39.96498 6.9382,-11.93361 16.3756,-21.37109 28.30922,-28.30922 11.93363,-7.21565 25.66965,-10.82062 41.21108,-10.82062 z m 217.30363,0 c 15.54143,0 29.2775,3.60497 41.2111,10.82062 11.9336,6.93813 21.37109,16.37561 28.30922,28.30922 6.93815,11.9336 10.40634,25.25613 10.40634,39.96498 0,14.15381 -3.05134,27.19624 -9.15691,39.12984 -5.82804,11.93361 -14.70862,21.50784 -26.64222,28.72351 -11.93361,6.93813 -26.64341,10.40633 -44.12753,10.40633 -17.48413,0 -32.19393,-3.60825 -44.12754,-10.82391 -11.65607,-7.21565 -20.53665,-16.78988 -26.64222,-28.72348 -6.10555,-11.93361 -9.15692,-24.83598 -9.15692,-38.71227 0,-14.43132 3.4682,-27.61381 10.40633,-39.54743 6.93816,-11.93359 16.37231,-21.51111 28.30592,-28.72678 12.21112,-7.21566 25.95052,-10.82061 41.21443,-10.82063 z m -216.88604,53.28446 c -7.2156,0 -13.04489,2.21765 -17.48532,6.65809 -4.44044,4.16287 -6.66142,9.71532 -6.66142,16.65344 0,6.3831 2.22098,11.79546 6.66142,16.2359 4.44043,4.44042 10.26972,6.65807 17.48532,6.65807 6.93817,0 12.62731,-2.21765 17.06771,-6.65807 4.16288,-4.44044 6.24381,-9.8528 6.24381,-16.2359 0,-6.66062 -2.08093,-12.21304 -6.24381,-16.65344 -4.4404,-4.44044 -10.12954,-6.65809 -17.06771,-6.65809 z m 216.46845,0 c -6.93816,0 -12.62732,2.21765 -17.06772,6.65809 -4.16289,4.44042 -6.24381,9.99282 -6.24381,16.65344 0,6.3831 2.08092,11.79546 6.24381,16.2359 4.4404,4.44042 10.12956,6.65807 17.06772,6.65807 7.21566,0 13.0449,-2.21765 17.48531,-6.65807 4.44041,-4.44044 6.66138,-9.8528 6.66138,-16.2359 0,-6.93812 -2.22097,-12.49057 -6.66138,-16.65344 -4.44041,-4.44044 -10.26965,-6.65809 -17.48531,-6.65809 z"
       inkscape:label="text gradient" />
  </g>
  <g
     inkscape:label="logo"
     inkscape:groupmode="layer"
     id="g4"
     transform="translate(1102.5823,42.293525)">
    <path
       id="path2"
       style="display:inline;fill:#003366;fill-opacity:1;stroke:none;stroke-width:18.3988;stroke-linejoin:round;stroke-dasharray:none;stroke-dashoffset:0;stroke-opacity:1;paint-order:fill markers stroke"
       d="m -1050.6338,443.77478 c -2.9693,-0.0468 -5.9384,-0.53288 -8.7304,-1.55773 -2.6821,-0.96358 -5.2117,-2.37066 -7.4322,-4.15839 -2.4885,-1.97656 -4.6045,-4.42324 -6.2047,-7.16778 -1.627,-2.76423 -2.7365,-5.83538 -3.2397,-9.00276 -0.5635,-3.43777 -0.2874,-6.93463 -0.3544,-10.40148 0,-133.96261 0,-267.92527 0,-401.8878502 0.047,-2.9394201 0.5186,-5.8799422 1.5283,-8.64627836 0.9374,-2.66097484 2.3267,-5.16499634 4.074,-7.37928754 1.8325,-2.3412035 4.0857,-4.3336969 6.5858,-5.9369899 2.6558,-1.637147 5.5836,-2.837942 8.6449,-3.457462 3.7067,-0.787424 7.5164,-0.477992 11.277,-0.541347 134.32882,0.0012 268.6577,-0.0023 402.9865,0.0017 2.96915,0.04709 5.93855,0.530003 8.73037,1.555986 2.68195,0.964461 5.21353,2.369294 7.43224,4.160134 2.48791,1.9763665 4.60395,4.4224831 6.20449,7.1661432 1.62609,2.76472809 2.73607,5.8353393 3.23993,9.0026533 0.56353,3.43833 0.28726,6.9358015 0.35433,10.4032255 -0.003,134.031963 0.006,268.064013 -0.004,402.095923 -0.0403,7.80467 -3.84102,15.47242 -10.02087,20.23795 -4.78814,3.77084 -10.92582,5.71626 -17.00839,5.51534 -136.02154,-10e-4 -272.04313,0.002 -408.0646,-0.002 z" />
    <path
       id="path3"
       style="font-size:245.333px;line-height:1;font-family:'Libre Barcode 128';-inkscape-font-specification:'Libre Barcode 128, ';text-align:center;letter-spacing:0px;text-anchor:middle;fill:#ffffff;fill-opacity:1;stroke-width:10.2014;stroke-linecap:round;stroke-linejoin:bevel;paint-order:stroke fill markers"
       d="m -999.07956,33.417966 c -7.68154,8.133288 -13.55614,16.94539 -17.62284,26.434231 -4.2926,9.488832 -6.4399,19.430262 -6.4399,29.8228 0,6.099966 0.7927,12.200043 2.3741,18.300013 1.5815,5.87404 4.8556,11.29541 9.8258,16.26576 4.2927,4.29256 10.1674,7.79459 17.62294,10.50568 3.8307,1.43652 8.9846,2.46504 15.2891,3.14038 -13.1918,6.85073 -23.72084,16.18537 -31.55494,28.03679 -9.037,13.10364 -13.557,29.03111 -13.557,47.78286 0,15.13697 3.502,29.25642 10.5058,42.36006 7.0036,12.8777 17.05904,23.27251 30.16274,31.17987 12.8776,7.68145 28.57978,11.52011 47.1057,11.52011 18.29983,0 34.11331,-3.61336 47.44285,-10.84294 13.10364,-7.45553 23.27037,-17.62229 30.49997,-30.5 7.22959,-12.8777 10.84294,-27.45051 10.84294,-43.71711 0,-18.75174 -4.40333,-34.67921 -13.2144,-47.78286 -7.68211,-11.33108 -17.75694,-20.35151 -30.17352,-27.1114 h 38.59912 6.4858 41.69365 c -12.41658,6.75989 -22.49144,15.78032 -30.17353,27.1114 -8.81108,13.10365 -13.21712,29.03113 -13.21712,47.78286 0,16.26661 3.61606,30.83941 10.84566,43.71711 7.22959,12.87772 17.39633,23.04447 30.49997,30.5 13.32955,7.22958 29.14302,10.84294 47.44293,10.84294 18.52582,0 34.22799,-3.83865 47.10569,-11.52011 13.10363,-7.90736 23.15907,-18.30217 30.16274,-31.17987 7.00366,-13.10364 10.50571,-27.22309 10.50571,-42.36006 0,-18.75174 -4.52008,-34.67922 -13.55706,-47.78286 -7.83399,-11.85142 -18.36298,-21.18606 -31.55487,-28.03677 6.30448,-0.67536 11.4584,-1.70388 15.28911,-3.14038 7.45552,-2.71111 13.33025,-6.21314 17.62281,-10.5057 4.97036,-4.97033 8.24437,-10.39171 9.82584,-16.26576 1.58147,-6.09995 2.37417,-12.200047 2.37417,-18.300013 0,-10.392538 -2.14737,-20.333968 -6.43993,-29.8228 -4.06664,-9.488841 -9.94139,-18.300943 -17.62283,-26.434231 l -12.19999,9.151346 c 6.09996,6.325889 10.73135,12.876612 13.89429,19.654362 3.16294,6.551806 4.74563,13.105224 4.74563,19.65703 0,8.585136 -2.59801,15.135859 -7.79427,19.654376 -3.16296,2.7111 -7.45499,4.74444 -12.87718,6.09999 -5.4222,1.12961 -13.78363,1.69429 -25.07987,1.69429 h -112.24157 -9.12706 -105.00568 c -11.2963,0 -19.6577,-0.56468 -25.08,-1.69429 -5.4221,-1.35555 -9.7141,-3.38889 -12.877,-6.09999 -5.19634,-4.518501 -7.79434,-11.06924 -7.79434,-19.654376 0,-6.551806 1.5827,-13.105224 4.7455,-19.65703 3.16304,-6.77775 7.79444,-13.328473 13.89434,-19.654362 z m 64.04867,105.057004 c 12.42585,0 23.61066,2.93469 33.55134,8.80872 9.71476,5.87405 17.39481,13.67081 23.04293,23.38556 5.64811,9.71478 8.47146,20.44622 8.47146,32.19429 0,11.29626 -2.48402,21.79965 -7.45435,31.51442 -4.97033,9.71476 -12.19973,17.50883 -21.68858,23.38286 -9.71475,5.87405 -21.68954,8.8114 -35.9228,8.8114 -14.23327,0 -26.20807,-2.82333 -35.92287,-8.47146 -9.7147,-5.87404 -16.9441,-13.66812 -21.6885,-23.38289 -4.9704,-9.71476 -7.45434,-20.33218 -7.45434,-31.85434 0,-11.97401 2.82334,-22.81945 8.47144,-32.53421 5.6482,-9.71477 13.3309,-17.39752 23.0457,-23.04563 9.71474,-5.87403 20.89679,-8.80872 33.54857,-8.80872 z m 176.89992,0 c 12.65178,0 23.83387,2.93469 33.54863,8.80872 9.71476,5.64811 17.39752,13.33086 23.04563,23.04563 5.64813,9.71476 8.47147,20.5602 8.47147,32.53421 0,11.52216 -2.484,22.13958 -7.45435,31.85434 -4.74442,9.71477 -11.97381,17.50885 -21.68858,23.38289 -9.71476,5.64811 -21.68954,8.47146 -35.9228,8.47146 -14.23327,0 -26.20805,-2.93736 -35.92282,-8.8114 -9.48883,-5.87403 -16.71822,-13.6681 -21.68857,-23.38286 -4.97034,-9.71477 -7.45436,-20.21817 -7.45436,-31.51442 0,-11.74807 2.82335,-22.47951 8.47146,-32.19429 5.64813,-9.71475 13.32817,-17.51151 23.04294,-23.38555 9.94068,-5.87404 21.12549,-8.80871 33.55135,-8.80873 z m -176.55997,43.37717 c -5.87399,0 -10.61943,1.80532 -14.23424,5.42014 -3.61482,3.38886 -5.42285,7.90893 -5.42285,13.55703 0,5.19628 1.80803,9.6023 5.42285,13.21712 3.61481,3.61481 8.36025,5.42013 14.23424,5.42013 5.64814,0 10.27949,-1.80532 13.89428,-5.42013 3.38886,-3.61482 5.08288,-8.02084 5.08288,-13.21712 0,-5.4222 -1.69402,-9.94224 -5.08288,-13.55703 -3.61479,-3.61482 -8.24614,-5.42014 -13.89428,-5.42014 z m 176.22002,0 c -5.64813,0 -10.27949,1.80532 -13.89428,5.42014 -3.38888,3.6148 -5.08289,8.13483 -5.08289,13.55703 0,5.19628 1.69401,9.6023 5.08289,13.21712 3.61479,3.61481 8.24615,5.42013 13.89428,5.42013 5.87404,0 10.61944,-1.80532 14.23423,-5.42013 3.6148,-3.61482 5.42282,-8.02084 5.42282,-13.21712 0,-5.6481 -1.80802,-10.16817 -5.42282,-13.55703 -3.61479,-3.61482 -8.36019,-5.42014 -14.23423,-5.42014 z"
       inkscape:label="text plain" />
  </g>
  <g
     inkscape:groupmode="layer"
     id="layer2"
     inkscape:label="dravida">
    <text
       xml:space="preserve"
       style="font-style:normal;font-variant:normal;font-weight:bold;font-stretch:normal;font-size:64px;line-height:1;font-family:'Microsoft YaHei UI';-inkscape-font-specification:'Microsoft YaHei UI Bold';text-align:center;letter-spacing:2.24px;writing-mode:lr-tb;direction:ltr;text-anchor:middle;fill:#003366;fill-opacity:1;stroke:none;stroke-width:18.3987;stroke-linecap:round;stroke-linejoin:round;stroke-dasharray:none;paint-order:stroke fill markers"
       x="260.11298"
       y="444.41763"
       id="text7"><tspan
         sodipodi:role="line"
         id="tspan7"
         x="261.23297"
         y="444.41763"
         style="fill:#ffffff;fill-opacity:1">DRAVIDA</tspan></text>
  </g>
</svg>
